<svg id="visual" viewBox="0 0 1960 1080" width="1960" height="1080" xmlns="http://www.w3.org/2000/svg" xmlns:xlink="http://www.w3.org/1999/xlink" version="1.1"><rect width="1960" height="1080" fill="#001122"></rect><g><g transform="translate(73 667)"><path d="M18.8 -17.1C24 -8.6 27.4 -0.8 27.3 8.7C27.1 18.1 23.2 29.2 16.3 31.7C9.4 34.1 -0.6 28 -11 22.9C-21.4 17.9 -32.2 13.8 -33.6 7.6C-35.1 1.4 -27.1 -6.9 -19.9 -15.9C-12.8 -24.9 -6.4 -34.5 0.2 -34.6C6.8 -34.8 13.7 -25.6 18.8 -17.1Z" fill="#715DF2"></path></g><g transform="translate(1092 226)"><path d="M18.7 -15.5C22.1 -10.6 21.3 -3 19.1 3.4C16.9 9.9 13.3 15.1 8.2 17.9C3.1 20.7 -3.7 21.1 -9.9 18.8C-16.1 16.5 -21.7 11.4 -23 5.3C-24.4 -0.7 -21.3 -7.6 -16.7 -12.8C-12.2 -17.9 -6.1 -21.3 0.8 -21.9C7.6 -22.5 15.3 -20.4 18.7 -15.5Z" fill="#715DF2"></path></g><g transform="translate(904 871)"><path d="M18.3 -15.7C23.3 -8.3 26.6 -0.7 25.1 5.7C23.7 12.2 17.4 17.6 10.1 21.1C2.9 24.7 -5.3 26.4 -10.4 23.3C-15.5 20.2 -17.5 12.3 -18.9 4.7C-20.4 -3 -21.3 -10.4 -18.1 -17.4C-14.9 -24.4 -7.4 -31.1 -0.4 -30.8C6.6 -30.4 13.3 -23.1 18.3 -15.7Z" fill="#715DF2"></path></g><g transform="translate(906 474)"><path d="M19.4 -14.6C24.9 -8.7 28.8 -0.6 27.6 6.8C26.3 14.2 19.8 21 12.7 23.2C5.6 25.4 -2.2 23.1 -8.3 19.4C-14.5 15.6 -18.9 10.5 -19.6 5.1C-20.3 -0.2 -17.2 -5.7 -13.3 -11.3C-9.4 -16.8 -4.7 -22.4 1.1 -23.3C7 -24.3 14 -20.5 19.4 -14.6Z" fill="#715DF2"></path></g><g transform="translate(1427 1045)"><path d="M19.1 -12.5C25.8 -6.8 33 1.2 33 10C32.9 18.8 25.6 28.4 17.3 30.1C9.1 31.8 -0.2 25.6 -10.2 20.9C-20.2 16.1 -31.1 12.9 -34.1 6C-37.1 -0.9 -32.3 -11.5 -25.3 -17.2C-18.4 -22.9 -9.2 -23.8 -1.5 -22.6C6.2 -21.5 12.4 -18.2 19.1 -12.5Z" fill="#715DF2"></path></g><g transform="translate(714 320)"><path d="M13.9 -11.3C17.4 -6.7 19.1 -1 17.8 3.8C16.5 8.6 12.2 12.4 7.1 15C2 17.5 -3.8 18.7 -10.4 17.2C-17.1 15.7 -24.7 11.5 -27.6 4.6C-30.5 -2.3 -28.7 -11.9 -23.4 -16.8C-18 -21.8 -9 -22.1 -1.9 -20.6C5.2 -19.1 10.4 -15.8 13.9 -11.3Z" fill="#715DF2"></path></g><g transform="translate(1263 858)"><path d="M26.5 -21.5C31 -15.4 29.2 -4.6 26 4.5C22.8 13.7 18.3 21.1 11.5 24.7C4.7 28.3 -4.4 28.1 -12 24.6C-19.7 21 -25.9 14.2 -29.5 4.8C-33.2 -4.5 -34.3 -16.4 -28.9 -22.7C-23.6 -29 -11.8 -29.8 -0.4 -29.5C11 -29.1 21.9 -27.7 26.5 -21.5Z" fill="#715DF2"></path></g><g transform="translate(951 57)"><path d="M22.4 -15C28.5 -10.2 32.7 -0.9 30.3 5.9C27.9 12.6 19 16.9 10.7 20.1C2.3 23.3 -5.5 25.5 -12.3 23.1C-19.1 20.8 -24.8 13.9 -25.9 6.6C-27 -0.6 -23.4 -8.2 -18.3 -12.8C-13.2 -17.4 -6.6 -18.9 0.8 -19.5C8.1 -20.1 16.3 -19.8 22.4 -15Z" fill="#715DF2"></path></g><g transform="translate(1612 1030)"><path d="M18.1 -13.6C22.1 -9.5 22.9 -2 21.5 5.1C20 12.3 16.3 19.2 10.1 22.9C4 26.6 -4.6 27 -11.3 23.7C-18 20.4 -22.7 13.3 -23.9 6C-25.1 -1.3 -22.8 -8.8 -18.2 -13.1C-13.7 -17.3 -6.8 -18.3 0.1 -18.4C7.1 -18.5 14.2 -17.8 18.1 -13.6Z" fill="#715DF2"></path></g><g transform="translate(1051 53)"><path d="M22.1 -17.2C26.8 -11.8 27.3 -2.7 25 4.9C22.6 12.6 17.3 18.8 9.8 23.8C2.2 28.8 -7.6 32.5 -15.2 29.6C-22.8 26.7 -28 17.2 -28.8 8.2C-29.6 -0.8 -25.8 -9.2 -20.3 -14.9C-14.8 -20.5 -7.4 -23.4 0.7 -23.9C8.7 -24.5 17.5 -22.7 22.1 -17.2Z" fill="#715DF2"></path></g><g transform="translate(1051 674)"><path d="M18.2 -14.9C22.2 -9.6 23 -2.1 21.5 5.2C20.1 12.4 16.4 19.5 9.8 24.1C3.2 28.7 -6.4 30.9 -13.2 27.6C-20.1 24.2 -24.2 15.3 -26.4 5.9C-28.7 -3.5 -29.1 -13.5 -24.4 -19.1C-19.7 -24.6 -9.8 -25.7 -1.3 -24.6C7.1 -23.5 14.3 -20.3 18.2 -14.9Z" fill="#715DF2"></path></g><g transform="translate(1318 159)"><path d="M21.4 -19.6C25.9 -11.5 26.4 -2.7 24.8 6.2C23.2 15.1 19.6 24.2 13.1 27.3C6.7 30.4 -2.6 27.5 -10.9 23.3C-19.2 19.1 -26.5 13.4 -27.4 7C-28.3 0.5 -22.8 -6.6 -17.2 -15.1C-11.5 -23.5 -5.8 -33.1 1.4 -34.2C8.5 -35.3 17 -27.8 21.4 -19.6Z" fill="#715DF2"></path></g><g transform="translate(1955 596)"><path d="M24.8 -17.7C31.8 -11.1 36.8 -0.8 35 8.5C33.3 17.8 24.9 26.1 16.3 28.1C7.6 30.2 -1.4 25.9 -10.6 21.6C-19.8 17.4 -29.2 13.1 -32.1 5.8C-35 -1.6 -31.4 -11.9 -25 -18.4C-18.6 -24.8 -9.3 -27.4 -0.2 -27.3C8.9 -27.1 17.9 -24.3 24.8 -17.7Z" fill="#715DF2"></path></g><g transform="translate(1148 913)"><path d="M20.1 -16.2C26.8 -7.6 33.4 0.8 32.7 8.8C31.9 16.8 23.7 24.4 13.9 29.4C4.1 34.3 -7.3 36.6 -15.9 32.6C-24.5 28.6 -30.2 18.4 -30.1 9.6C-29.9 0.7 -23.8 -6.7 -17.8 -15.2C-11.8 -23.6 -5.9 -33 0.4 -33.3C6.7 -33.6 13.4 -24.8 20.1 -16.2Z" fill="#715DF2"></path></g><g transform="translate(1795 1034)"><path d="M20.3 -13.2C27.4 -7.3 34.9 1.2 34.1 8.9C33.2 16.6 24 23.6 14.8 26.3C5.7 29 -3.4 27.4 -12.9 23.9C-22.4 20.4 -32.4 15 -35 7C-37.7 -1.1 -33 -11.8 -25.9 -17.6C-18.8 -23.5 -9.4 -24.5 -1.4 -23.3C6.6 -22.2 13.3 -19 20.3 -13.2Z" fill="#715DF2"></path></g><g transform="translate(1620 901)"><path d="M19.6 -17.4C23.1 -11.2 22.1 -3.2 20.4 4.9C18.8 13 16.4 21.1 11.2 23.8C6 26.6 -2.1 23.9 -9.7 20.2C-17.3 16.5 -24.3 11.8 -26.1 5.6C-27.8 -0.7 -24.1 -8.5 -18.9 -15.1C-13.6 -21.6 -6.8 -26.9 0.6 -27.4C8 -27.9 16.1 -23.6 19.6 -17.4Z" fill="#715DF2"></path></g><g transform="translate(371 347)"><path d="M13.2 -11.3C16.5 -6.5 18 -1 17.3 4.8C16.7 10.7 13.9 17 9.2 19.3C4.5 21.7 -2.2 20.1 -8.8 17.3C-15.4 14.6 -21.9 10.5 -24.3 4.3C-26.7 -1.9 -25 -10.3 -20.3 -15.4C-15.6 -20.6 -7.8 -22.6 -1.4 -21.5C5 -20.3 10 -16.1 13.2 -11.3Z" fill="#715DF2"></path></g><g transform="translate(475 862)"><path d="M17.8 -15.2C21 -10.1 20.3 -2.8 18.7 4.3C17.1 11.5 14.7 18.6 9.4 22.1C4.1 25.7 -4.1 25.7 -9.2 22.1C-14.2 18.5 -16.1 11.3 -17.8 4C-19.4 -3.2 -20.9 -10.5 -17.9 -15.6C-14.9 -20.6 -7.5 -23.4 -0.1 -23.3C7.3 -23.2 14.6 -20.3 17.8 -15.2Z" fill="#715DF2"></path></g><g transform="translate(1470 101)"><path d="M25.5 -20C30.1 -14.5 29 -4 26.7 6.1C24.5 16.3 21 26.3 13.8 30.5C6.6 34.7 -4.3 33.1 -12.3 28.2C-20.3 23.3 -25.5 15.2 -27.9 5.9C-30.4 -3.3 -30.2 -13.7 -25.1 -19.3C-20 -25 -10 -26 0.2 -26.1C10.4 -26.3 20.8 -25.6 25.5 -20Z" fill="#715DF2"></path></g><g transform="translate(657 430)"><path d="M15.7 -11.7C20.5 -6.5 24.7 0.1 23.5 5.5C22.3 10.9 15.9 15.1 8.2 19.9C0.6 24.7 -8.2 29.9 -13.6 27.6C-19 25.2 -21 15.2 -22.3 6.1C-23.6 -3.1 -24.2 -11.4 -20.4 -16.5C-16.5 -21.5 -8.3 -23.3 -1.4 -22.2C5.4 -21 10.8 -17 15.7 -11.7Z" fill="#715DF2"></path></g><g transform="translate(194 159)"><path d="M15.9 -12.1C19.7 -7.8 21.4 -1.3 19.9 4.3C18.5 9.9 13.9 14.5 8.5 16.7C3.2 18.9 -2.9 18.7 -7.7 16.3C-12.6 13.8 -16.3 9.2 -19.2 2.6C-22.1 -3.9 -24.2 -12.4 -20.8 -16.6C-17.5 -20.7 -8.8 -20.4 -1.4 -19.3C6 -18.2 12 -16.3 15.9 -12.1Z" fill="#715DF2"></path></g><g transform="translate(163 629)"><path d="M15.9 -12.1C21.5 -5.7 27.3 0.9 26.8 7.2C26.2 13.5 19.2 19.4 11.9 21.7C4.7 24.1 -2.8 22.8 -9.2 19.6C-15.6 16.3 -20.8 11.1 -23.3 4.2C-25.8 -2.8 -25.6 -11.5 -21.2 -17.6C-16.9 -23.7 -8.4 -27.2 -1.6 -25.9C5.2 -24.6 10.4 -18.5 15.9 -12.1Z" fill="#715DF2"></path></g><g transform="translate(119 544)"><path d="M20.2 -13.8C26.3 -8.5 31.4 -0.1 29.8 6.8C28.3 13.8 20.1 19.2 11.3 23.4C2.5 27.7 -6.9 30.7 -13.3 27.6C-19.8 24.5 -23.3 15.3 -24.5 6.6C-25.7 -2.1 -24.6 -10.4 -20.1 -15.4C-15.6 -20.3 -7.8 -21.9 -0.4 -21.6C7.1 -21.3 14.1 -19.1 20.2 -13.8Z" fill="#715DF2"></path></g><g transform="translate(251 262)"><path d="M19.3 -17.3C22.7 -11.2 21.4 -3.3 18.9 3C16.4 9.3 12.7 13.9 7.5 16.9C2.4 19.8 -4.2 21 -10.6 19.1C-17 17.1 -23.3 11.9 -24.5 5.8C-25.8 -0.3 -22 -7.4 -17 -13.9C-12.1 -20.3 -6 -26.2 1 -26.9C8 -27.7 16 -23.4 19.3 -17.3Z" fill="#715DF2"></path></g><g transform="translate(452 602)"><path d="M18.5 -16.1C24.3 -7.5 29.6 0.3 28.3 6.8C27.1 13.3 19.3 18.6 11.6 21.1C3.9 23.7 -3.6 23.5 -12.3 21C-21 18.6 -30.8 13.9 -32.3 7.4C-33.7 0.9 -26.7 -7.4 -20 -16.3C-13.2 -25.1 -6.6 -34.5 -0.1 -34.4C6.3 -34.3 12.7 -24.7 18.5 -16.1Z" fill="#715DF2"></path></g><g transform="translate(764 910)"><path d="M20.1 -13.8C26.2 -8.4 31.4 0 30.7 8.6C30 17.1 23.3 25.9 15.2 28.6C7.1 31.3 -2.4 28 -9.6 23.3C-16.8 18.5 -21.7 12.3 -24 4.7C-26.3 -2.8 -26.1 -11.7 -21.6 -16.7C-17.2 -21.7 -8.6 -22.9 -0.8 -22.3C7 -21.6 14 -19.2 20.1 -13.8Z" fill="#715DF2"></path></g><g transform="translate(1933 141)"><path d="M20.7 -14.9C25.5 -10.5 27.2 -2 25 5C22.8 11.9 16.9 17.3 10 20.6C3.1 23.9 -4.8 25.1 -11 22.3C-17.2 19.5 -21.7 12.8 -24.1 4.8C-26.4 -3.1 -26.5 -12.2 -22.2 -16.5C-17.8 -20.8 -8.9 -20.3 -0.5 -19.9C8 -19.5 15.9 -19.3 20.7 -14.9Z" fill="#715DF2"></path></g><g transform="translate(1339 488)"><path d="M20.6 -19C24.9 -11.1 25.3 -2.6 22.9 4.2C20.5 10.9 15.3 16 8.1 21.3C0.8 26.6 -8.6 32 -15 29.6C-21.3 27.1 -24.6 16.7 -24.9 7.9C-25.2 -1 -22.4 -8.3 -17.8 -16.3C-13.1 -24.3 -6.6 -32.9 0.8 -33.6C8.2 -34.2 16.3 -26.9 20.6 -19Z" fill="#715DF2"></path></g><g transform="translate(312 818)"><path d="M21.7 -18.3C26.1 -11.8 26.2 -2.9 24 5C21.8 12.8 17.3 19.7 10.5 23.5C3.8 27.4 -5.1 28.3 -10.6 24.7C-16 21 -18 12.8 -19.3 5C-20.5 -2.7 -21.1 -10 -17.8 -16.3C-14.5 -22.6 -7.2 -27.8 0.7 -28.4C8.7 -29 17.3 -24.8 21.7 -18.3Z" fill="#715DF2"></path></g><g transform="translate(338 911)"><path d="M24.4 -17.2C31 -11.2 35.3 -1.1 33.2 7.3C31.1 15.7 22.5 22.3 14.2 24.5C5.8 26.6 -2.3 24.2 -10.4 20.6C-18.4 17.1 -26.3 12.5 -28.8 5.4C-31.4 -1.6 -28.6 -11.1 -22.9 -16.9C-17.2 -22.7 -8.6 -24.9 0.2 -25C8.9 -25.2 17.8 -23.2 24.4 -17.2Z" fill="#715DF2"></path></g><g transform="translate(489 220)"><path d="M24.4 -19.3C30 -12.5 31.8 -2.4 28.6 4.5C25.4 11.4 17.2 15.1 9.9 17.4C2.5 19.8 -4 20.8 -11.2 19C-18.5 17.2 -26.5 12.5 -28.9 5.6C-31.2 -1.3 -27.8 -10.4 -22.1 -17.2C-16.3 -24.1 -8.2 -28.6 0.6 -29.1C9.4 -29.6 18.8 -26.1 24.4 -19.3Z" fill="#715DF2"></path></g><g transform="translate(959 337)"><path d="M15.8 -13.3C19.9 -7.5 22.3 -0.9 21.5 5.8C20.7 12.4 16.6 19.2 9.8 23.8C3.1 28.3 -6.4 30.7 -12.5 27.2C-18.6 23.8 -21.2 14.6 -22.3 6.2C-23.3 -2.2 -22.7 -9.9 -18.7 -15.8C-14.8 -21.7 -7.4 -25.7 -0.8 -25.1C5.9 -24.5 11.7 -19.2 15.8 -13.3Z" fill="#715DF2"></path></g><g transform="translate(271 616)"><path d="M20.2 -15.8C24.8 -10.4 26.1 -2.1 24.8 6.5C23.5 15 19.5 23.7 13.1 26.4C6.7 29.2 -2.1 26 -8.4 21.4C-14.7 16.9 -18.5 11 -20.9 3.8C-23.3 -3.4 -24.4 -11.8 -20.7 -17.1C-17 -22.3 -8.5 -24.2 -0.3 -24C7.8 -23.7 15.7 -21.2 20.2 -15.8Z" fill="#715DF2"></path></g><g transform="translate(1699 698)"><path d="M24.4 -17.2C30.5 -11.9 33.4 -1.8 30.5 5.3C27.5 12.3 18.7 16.4 10.1 20.1C1.6 23.8 -6.6 27.2 -12.8 24.9C-19.1 22.5 -23.4 14.4 -24.4 6.5C-25.5 -1.4 -23.3 -9.1 -18.7 -14.1C-14 -19.2 -7 -21.5 1.1 -22.4C9.2 -23.2 18.4 -22.6 24.4 -17.2Z" fill="#715DF2"></path></g><g transform="translate(362 1039)"><path d="M15 -13.5C19.3 -6.6 22.5 -0.4 21.4 5.1C20.3 10.6 15 15.4 8.4 19.3C1.7 23.2 -6.2 26.3 -12.6 24.1C-19 21.8 -23.9 14.2 -24.8 6.7C-25.7 -0.8 -22.6 -8.2 -17.8 -15.3C-13 -22.3 -6.5 -29 -0.6 -28.6C5.4 -28.1 10.7 -20.5 15 -13.5Z" fill="#715DF2"></path></g><g transform="translate(1635 262)"><path d="M23.6 -19C29 -12 30.8 -2.3 28.5 6C26.3 14.4 19.9 21.3 12 25.2C4.1 29.1 -5.4 29.9 -12.7 26.4C-20 22.8 -25.3 14.9 -25.5 7.6C-25.8 0.3 -21.1 -6.4 -16 -13.3C-10.9 -20.2 -5.5 -27.3 1.8 -28.7C9.1 -30.1 18.2 -25.9 23.6 -19Z" fill="#715DF2"></path></g><g transform="translate(1026 870)"><path d="M19.7 -15.5C24.4 -9.8 26.4 -1.6 24.7 5.6C23 12.8 17.6 19.1 10.7 22.5C3.7 26 -4.7 26.7 -13.1 23.9C-21.4 21.1 -29.6 14.9 -32.2 6.5C-34.9 -2 -32 -12.6 -25.7 -18.7C-19.4 -24.8 -9.7 -26.4 -1.1 -25.6C7.5 -24.7 14.9 -21.3 19.7 -15.5Z" fill="#715DF2"></path></g><g transform="translate(1614 428)"><path d="M22.6 -16.8C27.9 -11.4 29.8 -2 27.5 5.4C25.1 12.9 18.4 18.5 10.8 22C3.2 25.5 -5.2 26.8 -10.8 23.6C-16.5 20.5 -19.4 12.8 -21.9 4.3C-24.4 -4.2 -26.4 -13.5 -22.7 -18.6C-19 -23.7 -9.5 -24.6 -0.4 -24.3C8.6 -23.9 17.3 -22.3 22.6 -16.8Z" fill="#715DF2"></path></g><g transform="translate(772 558)"><path d="M23 -17C27.6 -12.7 27.4 -3.2 24.9 4.9C22.4 13 17.6 19.8 10.5 24.2C3.3 28.6 -6.2 30.6 -14.3 27.5C-22.3 24.4 -28.9 16.3 -30.5 7.5C-32.2 -1.3 -28.8 -10.8 -22.8 -15.4C-16.9 -19.9 -8.5 -19.7 0.4 -20C9.3 -20.3 18.5 -21.2 23 -17Z" fill="#715DF2"></path></g><g transform="translate(1708 193)"><path d="M22.9 -19.8C27 -13 26 -3.7 23.4 4.6C20.9 12.8 17 20 10.7 23.4C4.5 26.8 -4.1 26.5 -11.7 23.3C-19.3 20 -26 13.7 -27.4 6.5C-28.8 -0.6 -24.9 -8.7 -19.5 -15.8C-14.1 -22.9 -7 -29 1.2 -29.9C9.4 -30.9 18.7 -26.6 22.9 -19.8Z" fill="#715DF2"></path></g><g transform="translate(222 38)"><path d="M22.4 -16C29.5 -9.1 35.8 0.3 34.5 8.6C33.2 17 24.2 24.3 14.4 28.6C4.5 32.8 -6.2 34 -15.3 30.2C-24.3 26.5 -31.7 17.7 -34.5 7.3C-37.3 -3 -35.5 -14.9 -29 -21.8C-22.5 -28.6 -11.2 -30.4 -1.8 -29C7.7 -27.6 15.4 -23 22.4 -16Z" fill="#715DF2"></path></g><g transform="translate(563 683)"><path d="M14.9 -12.4C19.4 -6.3 23.1 -0.1 22.3 5.8C21.6 11.7 16.3 17.3 9.1 22.1C1.9 26.8 -7.3 30.6 -15.4 28.2C-23.5 25.7 -30.4 17.1 -31 8.7C-31.7 0.2 -26.1 -8.1 -19.9 -14.6C-13.7 -21.1 -6.8 -25.9 -0.8 -25.2C5.2 -24.6 10.5 -18.6 14.9 -12.4Z" fill="#715DF2"></path></g><g transform="translate(1222 288)"><path d="M20.3 -17C23.8 -11.7 22.6 -3.4 20.6 4.4C18.5 12.1 15.7 19.4 10.3 22.5C4.8 25.5 -3.2 24.3 -10.7 21.1C-18.3 17.9 -25.5 12.7 -27.3 5.9C-29.1 -0.8 -25.5 -9.1 -20 -14.8C-14.6 -20.6 -7.3 -23.7 0.5 -24.1C8.4 -24.5 16.7 -22.2 20.3 -17Z" fill="#715DF2"></path></g><g transform="translate(907 774)"><path d="M21.3 -17.5C26.1 -10.9 27.5 -2.2 25 4.6C22.6 11.3 16.3 16 9.2 19.6C2.1 23.2 -5.8 25.8 -11 23.2C-16.2 20.6 -18.7 12.7 -19.9 5.2C-21.2 -2.3 -21.1 -9.5 -17.5 -15.9C-14 -22.2 -7 -27.7 0.6 -28.2C8.2 -28.7 16.4 -24.2 21.3 -17.5Z" fill="#715DF2"></path></g><g transform="translate(592 924)"><path d="M13.1 -11.6C16.8 -5.8 19.4 -0.4 19 5.5C18.6 11.4 15.1 17.9 9.2 21.6C3.4 25.4 -5 26.6 -12 23.7C-19.1 20.8 -24.8 13.9 -26.6 6C-28.4 -1.8 -26.3 -10.6 -21.2 -16.6C-16.2 -22.7 -8.1 -26 -1.7 -24.7C4.7 -23.3 9.4 -17.3 13.1 -11.6Z" fill="#715DF2"></path></g><g transform="translate(796 138)"><path d="M22.4 -19.1C27.1 -11.9 27.7 -2.7 24.9 4.2C22.1 11.1 16 15.8 9.2 18.9C2.5 22.1 -4.9 23.7 -10.9 21.3C-16.9 18.9 -21.5 12.4 -22.9 5.4C-24.4 -1.5 -22.6 -9.1 -18.2 -16.2C-13.9 -23.3 -6.9 -30 0.9 -30.7C8.8 -31.5 17.6 -26.3 22.4 -19.1Z" fill="#715DF2"></path></g><g transform="translate(227 516)"><path d="M13.8 -12.9C17 -7 18 -1.3 17.3 4.8C16.6 10.9 14 17.4 8.1 22.4C2.1 27.4 -7.2 30.9 -14.9 28.2C-22.6 25.6 -28.5 16.7 -30.5 7.2C-32.5 -2.3 -30.5 -12.5 -24.7 -19C-19 -25.5 -9.5 -28.4 -2.1 -26.7C5.3 -25 10.6 -18.8 13.8 -12.9Z" fill="#715DF2"></path></g><g transform="translate(179 982)"><path d="M21.4 -16.2C26.7 -10.3 29.4 -1.5 27.3 5.7C25.3 12.9 18.4 18.4 10.4 22.6C2.5 26.8 -6.6 29.6 -13.2 26.7C-19.7 23.8 -23.8 15.1 -25.8 6.1C-27.7 -3 -27.4 -12.3 -22.8 -18.1C-18.1 -23.8 -9.1 -26 -0.5 -25.6C8 -25.2 16 -22.2 21.4 -16.2Z" fill="#715DF2"></path></g><g transform="translate(1437 270)"><path d="M24.2 -20.3C29 -13.3 28.9 -3.3 26.5 5.6C24.1 14.6 19.5 22.7 12 27.2C4.5 31.6 -5.8 32.5 -13.7 28.6C-21.6 24.7 -27.1 16.1 -27.2 8.4C-27.2 0.6 -21.8 -6.2 -16.3 -13.4C-10.9 -20.6 -5.4 -28.2 2.1 -29.9C9.7 -31.6 19.4 -27.4 24.2 -20.3Z" fill="#715DF2"></path></g><g transform="translate(619 182)"><path d="M15.3 -13.5C18.4 -8.2 18.7 -1.9 17.5 4.4C16.4 10.7 13.8 17 9 19.8C4.2 22.5 -2.9 21.7 -10.6 19.1C-18.2 16.5 -26.4 12.2 -29.1 5.3C-31.7 -1.6 -28.8 -11.2 -23 -17.1C-17.3 -23 -8.6 -25.2 -1.3 -24.2C6.1 -23.2 12.1 -18.8 15.3 -13.5Z" fill="#715DF2"></path></g><g transform="translate(466 42)"><path d="M17.3 -15C22.6 -7.2 27.2 0 26.5 7.3C25.9 14.5 19.9 21.7 12.8 24.2C5.8 26.6 -2.4 24.4 -10 20.7C-17.5 17.1 -24.4 12.1 -27.8 4.3C-31.2 -3.5 -31.2 -14.2 -26 -22C-20.8 -29.7 -10.4 -34.6 -2.2 -32.8C6 -31.1 12 -22.7 17.3 -15Z" fill="#715DF2"></path></g><g transform="translate(992 568)"><path d="M18.9 -15.1C23.4 -9.4 25.3 -1.6 24.3 6.7C23.3 14.9 19.4 23.6 11.7 29.1C4.1 34.5 -7.4 36.8 -15.1 32.6C-22.9 28.4 -26.9 17.7 -27.7 8C-28.6 -1.7 -26.3 -10.4 -21.1 -16.2C-16 -22 -8 -25 -0.4 -24.7C7.2 -24.3 14.3 -20.7 18.9 -15.1Z" fill="#715DF2"></path></g><g transform="translate(1401 616)"><path d="M26.2 -22.7C30.6 -15.3 28.7 -4.6 25.3 3.9C21.8 12.4 17 18.8 10.8 21.3C4.7 23.8 -2.8 22.6 -8.5 19.2C-14.2 15.9 -18.1 10.4 -20.2 3.8C-22.4 -2.8 -22.8 -10.7 -19.1 -17.9C-15.5 -25.2 -7.7 -31.9 1.6 -33.1C10.9 -34.4 21.7 -30.2 26.2 -22.7Z" fill="#715DF2"></path></g><g transform="translate(1113 536)"><path d="M14 -11.7C17.5 -6.7 19.3 -1 18.2 4.3C17.1 9.6 13.2 14.3 7.8 17.3C2.4 20.4 -4.3 21.7 -10.2 19.5C-16 17.3 -20.9 11.6 -22.4 5.1C-23.9 -1.4 -22 -8.7 -17.6 -13.8C-13.3 -18.9 -6.7 -21.8 -0.7 -21.3C5.2 -20.7 10.4 -16.6 14 -11.7Z" fill="#715DF2"></path></g><g transform="translate(1 194)"><path d="M22.3 -16.4C27.4 -11.4 29 -2.2 26.2 4.4C23.4 11 16.3 15 9.6 17.1C2.9 19.3 -3.3 19.5 -9.5 17.4C-15.7 15.3 -21.8 10.8 -24.8 3.9C-27.9 -3.1 -27.8 -12.6 -23.2 -17.5C-18.5 -22.4 -9.2 -22.7 -0.3 -22.5C8.6 -22.2 17.2 -21.4 22.3 -16.4Z" fill="#715DF2"></path></g><g transform="translate(376 106)"><path d="M25.5 -18.7C32 -12.1 35.7 -1.6 34 8.7C32.4 18.9 25.6 28.9 17.2 31.1C8.9 33.3 -1 27.9 -8.4 22.4C-15.9 16.9 -21 11.4 -23.3 4.4C-25.7 -2.6 -25.2 -11.2 -20.9 -17.3C-16.5 -23.4 -8.3 -27 0.6 -27.4C9.5 -27.9 18.9 -25.3 25.5 -18.7Z" fill="#715DF2"></path></g><g transform="translate(458 1011)"><path d="M20.9 -17.5C25 -11.6 24.7 -3 22.2 3.9C19.7 10.8 14.9 16 9.1 18.8C3.2 21.7 -3.9 22.2 -9.6 19.5C-15.2 16.9 -19.6 11.2 -22.3 3.7C-25.1 -3.7 -26.3 -12.8 -22.4 -18.7C-18.4 -24.6 -9.2 -27.3 -0.4 -27C8.4 -26.7 16.9 -23.4 20.9 -17.5Z" fill="#715DF2"></path></g><g transform="translate(671 53)"><path d="M20.1 -16.1C26.1 -8.6 31 -0.2 29.3 6.4C27.5 13 19.2 17.8 11.2 20.8C3.1 23.8 -4.7 24.9 -10.6 22.1C-16.4 19.2 -20.2 12.3 -21.3 5.5C-22.3 -1.3 -20.5 -8.1 -16.5 -15.2C-12.5 -22.4 -6.2 -29.8 0.4 -30.1C7.1 -30.5 14.2 -23.7 20.1 -16.1Z" fill="#715DF2"></path></g><g transform="translate(757 750)"><path d="M23.6 -18.7C27.7 -13.6 26.3 -3.9 23.4 3.9C20.5 11.8 16 18 10.4 20.1C4.7 22.3 -2.2 20.6 -8.6 17.6C-15.1 14.6 -21 10.4 -22.7 4.7C-24.3 -0.9 -21.7 -8 -17.2 -13.2C-12.7 -18.4 -6.3 -21.6 1.7 -23C9.7 -24.3 19.4 -23.8 23.6 -18.7Z" fill="#715DF2"></path></g><g transform="translate(1579 172)"><path d="M16.3 -15.7C19.8 -8.5 20.6 -1.8 20.1 6.3C19.6 14.4 17.8 23.8 12.3 27.2C6.7 30.5 -2.6 27.7 -9.2 23C-15.7 18.3 -19.5 11.8 -21.5 4.5C-23.5 -2.8 -23.7 -11 -19.8 -18.2C-16 -25.5 -8 -31.8 -0.8 -31.2C6.4 -30.6 12.7 -22.9 16.3 -15.7Z" fill="#715DF2"></path></g><g transform="translate(612 343)"><path d="M17.9 -15.7C21.4 -9.9 21.1 -2.6 20.2 5.8C19.2 14.2 17.5 23.5 12.5 26C7.4 28.5 -1 24 -7.9 19.5C-14.9 15 -20.3 10.4 -23.3 3.6C-26.3 -3.3 -26.7 -12.5 -22.4 -18.5C-18.1 -24.5 -9.1 -27.3 -0.9 -26.6C7.2 -25.8 14.4 -21.5 17.9 -15.7Z" fill="#715DF2"></path></g><g transform="translate(1814 389)"><path d="M27.4 -22.7C32.3 -15.8 30.6 -4.6 26.7 3.6C22.8 11.7 16.7 16.9 10 19.7C3.3 22.6 -4.1 23.1 -9.6 20.3C-15.2 17.5 -18.9 11.3 -21 4.2C-23.1 -3 -23.6 -11.1 -19.8 -17.7C-16.1 -24.3 -8 -29.5 1.6 -30.8C11.3 -32.1 22.6 -29.6 27.4 -22.7Z" fill="#715DF2"></path></g><g transform="translate(1186 1050)"><path d="M19.9 -16.8C23.8 -10.9 23.8 -2.7 21.4 3.7C18.9 10 14.1 14.7 8 18.2C1.9 21.7 -5.4 24.1 -12.1 22C-18.8 20 -24.8 13.5 -26.1 6.4C-27.3 -0.7 -23.9 -8.5 -18.7 -14.7C-13.6 -20.9 -6.8 -25.6 0.6 -26.1C7.9 -26.6 15.9 -22.8 19.9 -16.8Z" fill="#715DF2"></path></g><g transform="translate(186 774)"><path d="M25.9 -18.4C32.3 -12.6 35.4 -1.9 32.6 6.1C29.7 14.2 20.9 19.6 11.8 23.7C2.7 27.7 -6.7 30.5 -14.4 27.6C-22.2 24.8 -28.4 16.3 -30.6 6.9C-32.9 -2.6 -31.2 -13.1 -25.5 -18.8C-19.7 -24.5 -9.8 -25.4 -0.1 -25.4C9.7 -25.3 19.4 -24.3 25.9 -18.4Z" fill="#715DF2"></path></g><g transform="translate(957 1058)"><path d="M18.6 -15.6C24.1 -7.9 28.6 -0.2 27.6 7.2C26.6 14.6 20.2 21.7 12.3 25.4C4.4 29.2 -5 29.6 -12.1 25.9C-19.2 22.2 -23.9 14.4 -25.7 6C-27.6 -2.4 -26.5 -11.3 -21.7 -18.9C-16.9 -26.5 -8.5 -32.7 -1 -31.9C6.5 -31.1 13.1 -23.4 18.6 -15.6Z" fill="#715DF2"></path></g><g transform="translate(1799 109)"><path d="M25.2 -19.3C29.9 -14.2 29.1 -3.9 25.8 4C22.5 11.9 16.7 17.3 10.2 20.2C3.6 23 -3.8 23.2 -11.8 20.8C-19.7 18.4 -28.2 13.4 -30.9 5.8C-33.6 -1.7 -30.5 -11.7 -24.3 -17.2C-18.2 -22.6 -9.1 -23.4 0.6 -23.8C10.3 -24.3 20.5 -24.4 25.2 -19.3Z" fill="#715DF2"></path></g></g></svg>