<svg id="visual" viewBox="0 0 1960 1080" width="1960" height="1080" xmlns="http://www.w3.org/2000/svg" xmlns:xlink="http://www.w3.org/1999/xlink" version="1.1"><rect x="0" y="0" width="1960" height="1080" fill="#001220"></rect><path d="M0 329L46.7 329C93.3 329 186.7 329 280 321.3C373.3 313.7 466.7 298.3 560 303.8C653.3 309.3 746.7 335.7 840 342.5C933.3 349.3 1026.7 336.7 1120 329C1213.3 321.3 1306.7 318.7 1400 335.5C1493.3 352.3 1586.7 388.7 1680 396.3C1773.3 404 1866.7 383 1913.3 372.5L1960 362L1960 0L1913.3 0C1866.7 0 1773.3 0 1680 0C1586.7 0 1493.3 0 1400 0C1306.7 0 1213.3 0 1120 0C1026.7 0 933.3 0 840 0C746.7 0 653.3 0 560 0C466.7 0 373.3 0 280 0C186.7 0 93.3 0 46.7 0L0 0Z" fill="#715df2"></path><path d="M0 338L46.7 323C93.3 308 186.7 278 280 261.7C373.3 245.3 466.7 242.7 560 244.2C653.3 245.7 746.7 251.3 840 258.3C933.3 265.3 1026.7 273.7 1120 290.2C1213.3 306.7 1306.7 331.3 1400 324.7C1493.3 318 1586.7 280 1680 269.3C1773.3 258.7 1866.7 275.3 1913.3 283.7L1960 292L1960 0L1913.3 0C1866.7 0 1773.3 0 1680 0C1586.7 0 1493.3 0 1400 0C1306.7 0 1213.3 0 1120 0C1026.7 0 933.3 0 840 0C746.7 0 653.3 0 560 0C466.7 0 373.3 0 280 0C186.7 0 93.3 0 46.7 0L0 0Z" fill="#4b58d5"></path><path d="M0 219L46.7 215.2C93.3 211.3 186.7 203.7 280 213.8C373.3 224 466.7 252 560 261.2C653.3 270.3 746.7 260.7 840 242.7C933.3 224.7 1026.7 198.3 1120 198.5C1213.3 198.7 1306.7 225.3 1400 234.2C1493.3 243 1586.7 234 1680 218.7C1773.3 203.3 1866.7 181.7 1913.3 170.8L1960 160L1960 0L1913.3 0C1866.7 0 1773.3 0 1680 0C1586.7 0 1493.3 0 1400 0C1306.7 0 1213.3 0 1120 0C1026.7 0 933.3 0 840 0C746.7 0 653.3 0 560 0C466.7 0 373.3 0 280 0C186.7 0 93.3 0 46.7 0L0 0Z" fill="#2a51b6"></path><path d="M0 135L46.7 138.3C93.3 141.7 186.7 148.3 280 145.8C373.3 143.3 466.7 131.7 560 127.3C653.3 123 746.7 126 840 133.8C933.3 141.7 1026.7 154.3 1120 161.7C1213.3 169 1306.7 171 1400 172.7C1493.3 174.3 1586.7 175.7 1680 168.2C1773.3 160.7 1866.7 144.3 1913.3 136.2L1960 128L1960 0L1913.3 0C1866.7 0 1773.3 0 1680 0C1586.7 0 1493.3 0 1400 0C1306.7 0 1213.3 0 1120 0C1026.7 0 933.3 0 840 0C746.7 0 653.3 0 560 0C466.7 0 373.3 0 280 0C186.7 0 93.3 0 46.7 0L0 0Z" fill="#0e4796"></path><path d="M0 111L46.7 107.2C93.3 103.3 186.7 95.7 280 92.3C373.3 89 466.7 90 560 86.2C653.3 82.3 746.7 73.7 840 71.7C933.3 69.7 1026.7 74.3 1120 76.8C1213.3 79.3 1306.7 79.7 1400 74C1493.3 68.3 1586.7 56.7 1680 56.5C1773.3 56.3 1866.7 67.7 1913.3 73.3L1960 79L1960 0L1913.3 0C1866.7 0 1773.3 0 1680 0C1586.7 0 1493.3 0 1400 0C1306.7 0 1213.3 0 1120 0C1026.7 0 933.3 0 840 0C746.7 0 653.3 0 560 0C466.7 0 373.3 0 280 0C186.7 0 93.3 0 46.7 0L0 0Z" fill="#023c76"></path></svg>