<svg id="visual" viewBox="0 0 1920 1080" width="1920" height="1080" xmlns="http://www.w3.org/2000/svg" xmlns:xlink="http://www.w3.org/1999/xlink" version="1.1"><path d="M0 98L26.7 90.8C53.3 83.7 106.7 69.3 160 60.3C213.3 51.3 266.7 47.7 320 53C373.3 58.3 426.7 72.7 480 85.3C533.3 98 586.7 109 640 105.5C693.3 102 746.7 84 800 71.3C853.3 58.7 906.7 51.3 960 51.3C1013.3 51.3 1066.7 58.7 1120 62.3C1173.3 66 1226.7 66 1280 69.5C1333.3 73 1386.7 80 1440 85.3C1493.3 90.7 1546.7 94.3 1600 99.8C1653.3 105.3 1706.7 112.7 1760 112.7C1813.3 112.7 1866.7 105.3 1893.3 101.7L1920 98L1920 0L1893.3 0C1866.7 0 1813.3 0 1760 0C1706.7 0 1653.3 0 1600 0C1546.7 0 1493.3 0 1440 0C1386.7 0 1333.3 0 1280 0C1226.7 0 1173.3 0 1120 0C1066.7 0 1013.3 0 960 0C906.7 0 853.3 0 800 0C746.7 0 693.3 0 640 0C586.7 0 533.3 0 480 0C426.7 0 373.3 0 320 0C266.7 0 213.3 0 160 0C106.7 0 53.3 0 26.7 0L0 0Z" fill="#6198ff"></path><path d="M0 152L26.7 143C53.3 134 106.7 116 160 107C213.3 98 266.7 98 320 110.7C373.3 123.3 426.7 148.7 480 166.7C533.3 184.7 586.7 195.3 640 189.8C693.3 184.3 746.7 162.7 800 150.2C853.3 137.7 906.7 134.3 960 136.2C1013.3 138 1066.7 145 1120 139.5C1173.3 134 1226.7 116 1280 110.7C1333.3 105.3 1386.7 112.7 1440 119.8C1493.3 127 1546.7 134 1600 144.8C1653.3 155.7 1706.7 170.3 1760 168.7C1813.3 167 1866.7 149 1893.3 140L1920 131L1920 96L1893.3 99.7C1866.7 103.3 1813.3 110.7 1760 110.7C1706.7 110.7 1653.3 103.3 1600 97.8C1546.7 92.3 1493.3 88.7 1440 83.3C1386.7 78 1333.3 71 1280 67.5C1226.7 64 1173.3 64 1120 60.3C1066.7 56.7 1013.3 49.3 960 49.3C906.7 49.3 853.3 56.7 800 69.3C746.7 82 693.3 100 640 103.5C586.7 107 533.3 96 480 83.3C426.7 70.7 373.3 56.3 320 51C266.7 45.7 213.3 49.3 160 58.3C106.7 67.3 53.3 81.7 26.7 88.8L0 96Z" fill="#4f8cff"></path><path d="M0 206L26.7 198.8C53.3 191.7 106.7 177.3 160 166.5C213.3 155.7 266.7 148.3 320 161C373.3 173.7 426.7 206.3 480 229.8C533.3 253.3 586.7 267.7 640 256.8C693.3 246 746.7 210 800 195.5C853.3 181 906.7 188 960 193.3C1013.3 198.7 1066.7 202.3 1120 198.8C1173.3 195.3 1226.7 184.7 1280 179.3C1333.3 174 1386.7 174 1440 179.3C1493.3 184.7 1546.7 195.3 1600 206.2C1653.3 217 1706.7 228 1760 224.5C1813.3 221 1866.7 203 1893.3 194L1920 185L1920 129L1893.3 138C1866.7 147 1813.3 165 1760 166.7C1706.7 168.3 1653.3 153.7 1600 142.8C1546.7 132 1493.3 125 1440 117.8C1386.7 110.7 1333.3 103.3 1280 108.7C1226.7 114 1173.3 132 1120 137.5C1066.7 143 1013.3 136 960 134.2C906.7 132.3 853.3 135.7 800 148.2C746.7 160.7 693.3 182.3 640 187.8C586.7 193.3 533.3 182.7 480 164.7C426.7 146.7 373.3 121.3 320 108.7C266.7 96 213.3 96 160 105C106.7 114 53.3 132 26.7 141L0 150Z" fill="#3c80ff"></path><path d="M0 282L26.7 267.5C53.3 253 106.7 224 160 215C213.3 206 266.7 217 320 229.7C373.3 242.3 426.7 256.7 480 272.8C533.3 289 586.7 307 640 305.2C693.3 303.3 746.7 281.7 800 267.3C853.3 253 906.7 246 960 242.5C1013.3 239 1066.7 239 1120 233.5C1173.3 228 1226.7 217 1280 218.7C1333.3 220.3 1386.7 234.7 1440 240.2C1493.3 245.7 1546.7 242.3 1600 246C1653.3 249.7 1706.7 260.3 1760 260.3C1813.3 260.3 1866.7 249.7 1893.3 244.3L1920 239L1920 183L1893.3 192C1866.7 201 1813.3 219 1760 222.5C1706.7 226 1653.3 215 1600 204.2C1546.7 193.3 1493.3 182.7 1440 177.3C1386.7 172 1333.3 172 1280 177.3C1226.7 182.7 1173.3 193.3 1120 196.8C1066.7 200.3 1013.3 196.7 960 191.3C906.7 186 853.3 179 800 193.5C746.7 208 693.3 244 640 254.8C586.7 265.7 533.3 251.3 480 227.8C426.7 204.3 373.3 171.7 320 159C266.7 146.3 213.3 153.7 160 164.5C106.7 175.3 53.3 189.7 26.7 196.8L0 204Z" fill="#2573ff"></path><path d="M0 498L26.7 485.3C53.3 472.7 106.7 447.3 160 443.7C213.3 440 266.7 458 320 468.8C373.3 479.7 426.7 483.3 480 479.8C533.3 476.3 586.7 465.7 640 451.3C693.3 437 746.7 419 800 444.2C853.3 469.3 906.7 537.7 960 534C1013.3 530.3 1066.7 454.7 1120 409.7C1173.3 364.7 1226.7 350.3 1280 370.2C1333.3 390 1386.7 444 1440 463.8C1493.3 483.7 1546.7 469.3 1600 483.7C1653.3 498 1706.7 541 1760 553.5C1813.3 566 1866.7 548 1893.3 539L1920 530L1920 237L1893.3 242.3C1866.7 247.7 1813.3 258.3 1760 258.3C1706.7 258.3 1653.3 247.7 1600 244C1546.7 240.3 1493.3 243.7 1440 238.2C1386.7 232.7 1333.3 218.3 1280 216.7C1226.7 215 1173.3 226 1120 231.5C1066.7 237 1013.3 237 960 240.5C906.7 244 853.3 251 800 265.3C746.7 279.7 693.3 301.3 640 303.2C586.7 305 533.3 287 480 270.8C426.7 254.7 373.3 240.3 320 227.7C266.7 215 213.3 204 160 213C106.7 222 53.3 251 26.7 265.5L0 280Z" fill="#0066ff"></path><path d="M0 681L26.7 679.3C53.3 677.7 106.7 674.3 160 681.7C213.3 689 266.7 707 320 701.5C373.3 696 426.7 667 480 661.5C533.3 656 586.7 674 640 684.8C693.3 695.7 746.7 699.3 800 710.2C853.3 721 906.7 739 960 740.8C1013.3 742.7 1066.7 728.3 1120 706.7C1173.3 685 1226.7 656 1280 639.8C1333.3 623.7 1386.7 620.3 1440 634.8C1493.3 649.3 1546.7 681.7 1600 712.2C1653.3 742.7 1706.7 771.3 1760 767.7C1813.3 764 1866.7 728 1893.3 710L1920 692L1920 528L1893.3 537C1866.7 546 1813.3 564 1760 551.5C1706.7 539 1653.3 496 1600 481.7C1546.7 467.3 1493.3 481.7 1440 461.8C1386.7 442 1333.3 388 1280 368.2C1226.7 348.3 1173.3 362.7 1120 407.7C1066.7 452.7 1013.3 528.3 960 532C906.7 535.7 853.3 467.3 800 442.2C746.7 417 693.3 435 640 449.3C586.7 463.7 533.3 474.3 480 477.8C426.7 481.3 373.3 477.7 320 466.8C266.7 456 213.3 438 160 441.7C106.7 445.3 53.3 470.7 26.7 483.3L0 496Z" fill="#005fee"></path><path d="M0 779L26.7 786.2C53.3 793.3 106.7 807.7 160 820.2C213.3 832.7 266.7 843.3 320 834.3C373.3 825.3 426.7 796.7 480 787.7C533.3 778.7 586.7 789.3 640 801.8C693.3 814.3 746.7 828.7 800 834.2C853.3 839.7 906.7 836.3 960 832.8C1013.3 829.3 1066.7 825.7 1120 814.8C1173.3 804 1226.7 786 1280 775.2C1333.3 764.3 1386.7 760.7 1440 771.5C1493.3 782.3 1546.7 807.7 1600 825.7C1653.3 843.7 1706.7 854.3 1760 848.8C1813.3 843.3 1866.7 821.7 1893.3 810.8L1920 800L1920 690L1893.3 708C1866.7 726 1813.3 762 1760 765.7C1706.7 769.3 1653.3 740.7 1600 710.2C1546.7 679.7 1493.3 647.3 1440 632.8C1386.7 618.3 1333.3 621.7 1280 637.8C1226.7 654 1173.3 683 1120 704.7C1066.7 726.3 1013.3 740.7 960 738.8C906.7 737 853.3 719 800 708.2C746.7 697.3 693.3 693.7 640 682.8C586.7 672 533.3 654 480 659.5C426.7 665 373.3 694 320 699.5C266.7 705 213.3 687 160 679.7C106.7 672.3 53.3 675.7 26.7 677.3L0 679Z" fill="#0059dd"></path><path d="M0 876L26.7 876C53.3 876 106.7 876 160 892.2C213.3 908.3 266.7 940.7 320 947.8C373.3 955 426.7 937 480 926.2C533.3 915.3 586.7 911.7 640 924.3C693.3 937 746.7 966 800 971.5C853.3 977 906.7 959 960 953.5C1013.3 948 1066.7 955 1120 942.3C1173.3 929.7 1226.7 897.3 1280 890.2C1333.3 883 1386.7 901 1440 920.8C1493.3 940.7 1546.7 962.3 1600 964.2C1653.3 966 1706.7 948 1760 939C1813.3 930 1866.7 930 1893.3 930L1920 930L1920 798L1893.3 808.8C1866.7 819.7 1813.3 841.3 1760 846.8C1706.7 852.3 1653.3 841.7 1600 823.7C1546.7 805.7 1493.3 780.3 1440 769.5C1386.7 758.7 1333.3 762.3 1280 773.2C1226.7 784 1173.3 802 1120 812.8C1066.7 823.7 1013.3 827.3 960 830.8C906.7 834.3 853.3 837.7 800 832.2C746.7 826.7 693.3 812.3 640 799.8C586.7 787.3 533.3 776.7 480 785.7C426.7 794.7 373.3 823.3 320 832.3C266.7 841.3 213.3 830.7 160 818.2C106.7 805.7 53.3 791.3 26.7 784.2L0 777Z" fill="#0052cc"></path><path d="M0 1081L26.7 1081C53.3 1081 106.7 1081 160 1081C213.3 1081 266.7 1081 320 1081C373.3 1081 426.7 1081 480 1081C533.3 1081 586.7 1081 640 1081C693.3 1081 746.7 1081 800 1081C853.3 1081 906.7 1081 960 1081C1013.3 1081 1066.7 1081 1120 1081C1173.3 1081 1226.7 1081 1280 1081C1333.3 1081 1386.7 1081 1440 1081C1493.3 1081 1546.7 1081 1600 1081C1653.3 1081 1706.7 1081 1760 1081C1813.3 1081 1866.7 1081 1893.3 1081L1920 1081L1920 928L1893.3 928C1866.7 928 1813.3 928 1760 937C1706.7 946 1653.3 964 1600 962.2C1546.7 960.3 1493.3 938.7 1440 918.8C1386.7 899 1333.3 881 1280 888.2C1226.7 895.3 1173.3 927.7 1120 940.3C1066.7 953 1013.3 946 960 951.5C906.7 957 853.3 975 800 969.5C746.7 964 693.3 935 640 922.3C586.7 909.7 533.3 913.3 480 924.2C426.7 935 373.3 953 320 945.8C266.7 938.7 213.3 906.3 160 890.2C106.7 874 53.3 874 26.7 874L0 874Z" fill="#004cbb"></path></svg>